%TF.GenerationSoftware,KiCad,Pcbnew,5.1.12-84ad8e8a86~92~ubuntu20.04.1*%
%TF.CreationDate,2021-11-26T18:46:47+01:00*%
%TF.ProjectId,doorbell-adapter,646f6f72-6265-46c6-9c2d-616461707465,rev?*%
%TF.SameCoordinates,Original*%
%TF.FileFunction,Copper,L1,Top*%
%TF.FilePolarity,Positive*%
%FSLAX46Y46*%
G04 Gerber Fmt 4.6, Leading zero omitted, Abs format (unit mm)*
G04 Created by KiCad (PCBNEW 5.1.12-84ad8e8a86~92~ubuntu20.04.1) date 2021-11-26 18:46:47*
%MOMM*%
%LPD*%
G01*
G04 APERTURE LIST*
%TA.AperFunction,SMDPad,CuDef*%
%ADD10R,0.700000X0.600000*%
%TD*%
%TA.AperFunction,ComponentPad*%
%ADD11O,1.600000X1.600000*%
%TD*%
%TA.AperFunction,ComponentPad*%
%ADD12R,1.600000X1.600000*%
%TD*%
%TA.AperFunction,ComponentPad*%
%ADD13O,1.300000X0.800000*%
%TD*%
%TA.AperFunction,Conductor*%
%ADD14C,0.250000*%
%TD*%
G04 APERTURE END LIST*
D10*
%TO.P,D4,1*%
%TO.N,Net-(D2-Pad2)*%
X127750000Y-79450000D03*
%TO.P,D4,2*%
%TO.N,GND*%
X127750000Y-78050000D03*
%TD*%
D11*
%TO.P,U1,4*%
%TO.N,Net-(J_ESP1-Pad1)*%
X119630000Y-87500000D03*
%TO.P,U1,2*%
%TO.N,GND*%
X127250000Y-84960000D03*
%TO.P,U1,3*%
%TO.N,Net-(J_ESP1-Pad2)*%
X119630000Y-84960000D03*
D12*
%TO.P,U1,1*%
%TO.N,Net-(R2-Pad2)*%
X127250000Y-87500000D03*
%TD*%
%TO.P,R3,2*%
%TO.N,GND*%
%TA.AperFunction,SMDPad,CuDef*%
G36*
G01*
X130675000Y-83525000D02*
X130675000Y-82975000D01*
G75*
G02*
X130875000Y-82775000I200000J0D01*
G01*
X131275000Y-82775000D01*
G75*
G02*
X131475000Y-82975000I0J-200000D01*
G01*
X131475000Y-83525000D01*
G75*
G02*
X131275000Y-83725000I-200000J0D01*
G01*
X130875000Y-83725000D01*
G75*
G02*
X130675000Y-83525000I0J200000D01*
G01*
G37*
%TD.AperFunction*%
%TO.P,R3,1*%
%TO.N,Net-(C2-Pad1)*%
%TA.AperFunction,SMDPad,CuDef*%
G36*
G01*
X129025000Y-83525000D02*
X129025000Y-82975000D01*
G75*
G02*
X129225000Y-82775000I200000J0D01*
G01*
X129625000Y-82775000D01*
G75*
G02*
X129825000Y-82975000I0J-200000D01*
G01*
X129825000Y-83525000D01*
G75*
G02*
X129625000Y-83725000I-200000J0D01*
G01*
X129225000Y-83725000D01*
G75*
G02*
X129025000Y-83525000I0J200000D01*
G01*
G37*
%TD.AperFunction*%
%TD*%
%TO.P,R2,2*%
%TO.N,Net-(R2-Pad2)*%
%TA.AperFunction,SMDPad,CuDef*%
G36*
G01*
X129225000Y-87925000D02*
X129775000Y-87925000D01*
G75*
G02*
X129975000Y-88125000I0J-200000D01*
G01*
X129975000Y-88525000D01*
G75*
G02*
X129775000Y-88725000I-200000J0D01*
G01*
X129225000Y-88725000D01*
G75*
G02*
X129025000Y-88525000I0J200000D01*
G01*
X129025000Y-88125000D01*
G75*
G02*
X129225000Y-87925000I200000J0D01*
G01*
G37*
%TD.AperFunction*%
%TO.P,R2,1*%
%TO.N,Net-(C2-Pad1)*%
%TA.AperFunction,SMDPad,CuDef*%
G36*
G01*
X129225000Y-86275000D02*
X129775000Y-86275000D01*
G75*
G02*
X129975000Y-86475000I0J-200000D01*
G01*
X129975000Y-86875000D01*
G75*
G02*
X129775000Y-87075000I-200000J0D01*
G01*
X129225000Y-87075000D01*
G75*
G02*
X129025000Y-86875000I0J200000D01*
G01*
X129025000Y-86475000D01*
G75*
G02*
X129225000Y-86275000I200000J0D01*
G01*
G37*
%TD.AperFunction*%
%TD*%
%TO.P,R1,2*%
%TO.N,Net-(C2-Pad1)*%
%TA.AperFunction,SMDPad,CuDef*%
G36*
G01*
X129825000Y-81225000D02*
X129825000Y-81775000D01*
G75*
G02*
X129625000Y-81975000I-200000J0D01*
G01*
X129225000Y-81975000D01*
G75*
G02*
X129025000Y-81775000I0J200000D01*
G01*
X129025000Y-81225000D01*
G75*
G02*
X129225000Y-81025000I200000J0D01*
G01*
X129625000Y-81025000D01*
G75*
G02*
X129825000Y-81225000I0J-200000D01*
G01*
G37*
%TD.AperFunction*%
%TO.P,R1,1*%
%TO.N,+12V*%
%TA.AperFunction,SMDPad,CuDef*%
G36*
G01*
X131475000Y-81225000D02*
X131475000Y-81775000D01*
G75*
G02*
X131275000Y-81975000I-200000J0D01*
G01*
X130875000Y-81975000D01*
G75*
G02*
X130675000Y-81775000I0J200000D01*
G01*
X130675000Y-81225000D01*
G75*
G02*
X130875000Y-81025000I200000J0D01*
G01*
X131275000Y-81025000D01*
G75*
G02*
X131475000Y-81225000I0J-200000D01*
G01*
G37*
%TD.AperFunction*%
%TD*%
D13*
%TO.P,J_ESP1,2*%
%TO.N,Net-(J_ESP1-Pad2)*%
X116250000Y-85750000D03*
%TO.P,J_ESP1,1*%
%TO.N,Net-(J_ESP1-Pad1)*%
%TA.AperFunction,ComponentPad*%
G36*
G01*
X116700000Y-87400000D02*
X115800000Y-87400000D01*
G75*
G02*
X115600000Y-87200000I0J200000D01*
G01*
X115600000Y-86800000D01*
G75*
G02*
X115800000Y-86600000I200000J0D01*
G01*
X116700000Y-86600000D01*
G75*
G02*
X116900000Y-86800000I0J-200000D01*
G01*
X116900000Y-87200000D01*
G75*
G02*
X116700000Y-87400000I-200000J0D01*
G01*
G37*
%TD.AperFunction*%
%TD*%
%TO.P,J_Bell1,2*%
%TO.N,Net-(D2-Pad2)*%
X123250000Y-79500000D03*
%TO.P,J_Bell1,1*%
%TO.N,Net-(D1-Pad2)*%
%TA.AperFunction,ComponentPad*%
G36*
G01*
X123700000Y-81150000D02*
X122800000Y-81150000D01*
G75*
G02*
X122600000Y-80950000I0J200000D01*
G01*
X122600000Y-80550000D01*
G75*
G02*
X122800000Y-80350000I200000J0D01*
G01*
X123700000Y-80350000D01*
G75*
G02*
X123900000Y-80550000I0J-200000D01*
G01*
X123900000Y-80950000D01*
G75*
G02*
X123700000Y-81150000I-200000J0D01*
G01*
G37*
%TD.AperFunction*%
%TD*%
D10*
%TO.P,D3,1*%
%TO.N,Net-(D1-Pad2)*%
X126000000Y-79450000D03*
%TO.P,D3,2*%
%TO.N,GND*%
X126000000Y-78050000D03*
%TD*%
%TO.P,D2,1*%
%TO.N,+12V*%
X127750000Y-82200000D03*
%TO.P,D2,2*%
%TO.N,Net-(D2-Pad2)*%
X127750000Y-80800000D03*
%TD*%
%TO.P,D1,1*%
%TO.N,+12V*%
X126000000Y-82200000D03*
%TO.P,D1,2*%
%TO.N,Net-(D1-Pad2)*%
X126000000Y-80800000D03*
%TD*%
%TO.P,C2,2*%
%TO.N,GND*%
%TA.AperFunction,SMDPad,CuDef*%
G36*
G01*
X130575000Y-85250000D02*
X130575000Y-84750000D01*
G75*
G02*
X130800000Y-84525000I225000J0D01*
G01*
X131250000Y-84525000D01*
G75*
G02*
X131475000Y-84750000I0J-225000D01*
G01*
X131475000Y-85250000D01*
G75*
G02*
X131250000Y-85475000I-225000J0D01*
G01*
X130800000Y-85475000D01*
G75*
G02*
X130575000Y-85250000I0J225000D01*
G01*
G37*
%TD.AperFunction*%
%TO.P,C2,1*%
%TO.N,Net-(C2-Pad1)*%
%TA.AperFunction,SMDPad,CuDef*%
G36*
G01*
X129025000Y-85250000D02*
X129025000Y-84750000D01*
G75*
G02*
X129250000Y-84525000I225000J0D01*
G01*
X129700000Y-84525000D01*
G75*
G02*
X129925000Y-84750000I0J-225000D01*
G01*
X129925000Y-85250000D01*
G75*
G02*
X129700000Y-85475000I-225000J0D01*
G01*
X129250000Y-85475000D01*
G75*
G02*
X129025000Y-85250000I0J225000D01*
G01*
G37*
%TD.AperFunction*%
%TD*%
%TO.P,C1,2*%
%TO.N,GND*%
%TA.AperFunction,SMDPad,CuDef*%
G36*
G01*
X129750000Y-78675000D02*
X129250000Y-78675000D01*
G75*
G02*
X129025000Y-78450000I0J225000D01*
G01*
X129025000Y-78000000D01*
G75*
G02*
X129250000Y-77775000I225000J0D01*
G01*
X129750000Y-77775000D01*
G75*
G02*
X129975000Y-78000000I0J-225000D01*
G01*
X129975000Y-78450000D01*
G75*
G02*
X129750000Y-78675000I-225000J0D01*
G01*
G37*
%TD.AperFunction*%
%TO.P,C1,1*%
%TO.N,+12V*%
%TA.AperFunction,SMDPad,CuDef*%
G36*
G01*
X129750000Y-80225000D02*
X129250000Y-80225000D01*
G75*
G02*
X129025000Y-80000000I0J225000D01*
G01*
X129025000Y-79550000D01*
G75*
G02*
X129250000Y-79325000I225000J0D01*
G01*
X129750000Y-79325000D01*
G75*
G02*
X129975000Y-79550000I0J-225000D01*
G01*
X129975000Y-80000000D01*
G75*
G02*
X129750000Y-80225000I-225000J0D01*
G01*
G37*
%TD.AperFunction*%
%TD*%
D14*
%TO.N,GND*%
X126000000Y-78050000D02*
X127750000Y-78050000D01*
X131075000Y-84950000D02*
X131025000Y-85000000D01*
X131075000Y-83250000D02*
X131075000Y-84950000D01*
X127250000Y-84960000D02*
X128500000Y-86210000D01*
X128500000Y-86210000D02*
X128500000Y-86892478D01*
X128500000Y-86892478D02*
X129107522Y-87500000D01*
X131025000Y-86367478D02*
X131025000Y-85000000D01*
X129892478Y-87500000D02*
X131025000Y-86367478D01*
X129107522Y-87500000D02*
X129892478Y-87500000D01*
X129325000Y-78050000D02*
X129500000Y-78225000D01*
X127750000Y-78050000D02*
X129325000Y-78050000D01*
X129500000Y-78225000D02*
X129725000Y-78225000D01*
X131800010Y-82524990D02*
X131075000Y-83250000D01*
X131800010Y-80300010D02*
X131800010Y-82524990D01*
X129725000Y-78225000D02*
X131800010Y-80300010D01*
%TO.N,+12V*%
X126000000Y-82200000D02*
X127750000Y-82200000D01*
X128350000Y-82200000D02*
X128500000Y-82050000D01*
X127750000Y-82200000D02*
X128350000Y-82200000D01*
X128500000Y-80775000D02*
X129500000Y-79775000D01*
X128500000Y-82050000D02*
X128500000Y-80775000D01*
X129500000Y-79925000D02*
X131075000Y-81500000D01*
X129500000Y-79775000D02*
X129500000Y-79925000D01*
%TO.N,Net-(C2-Pad1)*%
X129425000Y-84950000D02*
X129475000Y-85000000D01*
X129425000Y-83250000D02*
X129425000Y-84950000D01*
X129425000Y-81500000D02*
X129425000Y-83250000D01*
X129475000Y-86650000D02*
X129500000Y-86675000D01*
X129475000Y-85000000D02*
X129475000Y-86650000D01*
%TO.N,Net-(D1-Pad2)*%
X125950000Y-80750000D02*
X126000000Y-80800000D01*
X123250000Y-80750000D02*
X125950000Y-80750000D01*
X126000000Y-80800000D02*
X126000000Y-79450000D01*
%TO.N,Net-(D2-Pad2)*%
X127124999Y-78824999D02*
X127750000Y-79450000D01*
X123925001Y-78824999D02*
X127124999Y-78824999D01*
X123250000Y-79500000D02*
X123925001Y-78824999D01*
X127750000Y-79450000D02*
X127750000Y-80800000D01*
%TO.N,Net-(J_ESP1-Pad2)*%
X118840000Y-85750000D02*
X119630000Y-84960000D01*
X116250000Y-85750000D02*
X118840000Y-85750000D01*
%TO.N,Net-(J_ESP1-Pad1)*%
X119130000Y-87000000D02*
X119630000Y-87500000D01*
X116250000Y-87000000D02*
X119130000Y-87000000D01*
%TO.N,Net-(R2-Pad2)*%
X128075000Y-88325000D02*
X127250000Y-87500000D01*
X129500000Y-88325000D02*
X128075000Y-88325000D01*
%TD*%
M02*
