%TF.GenerationSoftware,KiCad,Pcbnew,5.1.12-84ad8e8a86~92~ubuntu20.04.1*%
%TF.CreationDate,2021-11-26T18:46:47+01:00*%
%TF.ProjectId,doorbell-adapter,646f6f72-6265-46c6-9c2d-616461707465,rev?*%
%TF.SameCoordinates,Original*%
%TF.FileFunction,Legend,Top*%
%TF.FilePolarity,Positive*%
%FSLAX46Y46*%
G04 Gerber Fmt 4.6, Leading zero omitted, Abs format (unit mm)*
G04 Created by KiCad (PCBNEW 5.1.12-84ad8e8a86~92~ubuntu20.04.1) date 2021-11-26 18:46:47*
%MOMM*%
%LPD*%
G01*
G04 APERTURE LIST*
%ADD10C,0.120000*%
%ADD11C,0.100000*%
G04 APERTURE END LIST*
D10*
%TO.C,D4*%
X127150000Y-79900000D02*
X128350000Y-79900000D01*
X127150000Y-78050000D02*
X127150000Y-79900000D01*
X128350000Y-78050000D02*
X128350000Y-79900000D01*
%TO.C,U1*%
X122440000Y-88830000D02*
G75*
G02*
X124440000Y-88830000I1000000J0D01*
G01*
X124440000Y-88830000D02*
X126090000Y-88830000D01*
X126090000Y-88830000D02*
X126090000Y-83630000D01*
X126090000Y-83630000D02*
X120790000Y-83630000D01*
X120790000Y-83630000D02*
X120790000Y-88830000D01*
X120790000Y-88830000D02*
X122440000Y-88830000D01*
%TO.C,R3*%
X130012742Y-82727500D02*
X130487258Y-82727500D01*
X130012742Y-83772500D02*
X130487258Y-83772500D01*
%TO.C,R2*%
X130022500Y-87262742D02*
X130022500Y-87737258D01*
X128977500Y-87262742D02*
X128977500Y-87737258D01*
%TO.C,R1*%
X130487258Y-82022500D02*
X130012742Y-82022500D01*
X130487258Y-80977500D02*
X130012742Y-80977500D01*
%TO.C,J_ESP1*%
X114090000Y-88610000D02*
X117510000Y-88610000D01*
X117510000Y-88610000D02*
X117510000Y-84140000D01*
X117510000Y-84140000D02*
X114090000Y-84140000D01*
X114090000Y-84140000D02*
X114090000Y-88610000D01*
X117000000Y-86375000D02*
X117000000Y-88100000D01*
X117000000Y-88100000D02*
X116250000Y-88100000D01*
X116250000Y-88100000D02*
X116250000Y-88300000D01*
X116250000Y-88300000D02*
X115450000Y-88300000D01*
X115450000Y-88300000D02*
X115450000Y-88100000D01*
X115450000Y-88100000D02*
X114600000Y-88100000D01*
X114600000Y-88100000D02*
X114600000Y-86375000D01*
X117000000Y-86375000D02*
X117000000Y-84650000D01*
X117000000Y-84650000D02*
X116250000Y-84650000D01*
X116250000Y-84650000D02*
X116250000Y-84450000D01*
X116250000Y-84450000D02*
X115450000Y-84450000D01*
X115450000Y-84450000D02*
X115450000Y-84650000D01*
X115450000Y-84650000D02*
X114600000Y-84650000D01*
X114600000Y-84650000D02*
X114600000Y-86375000D01*
X117800000Y-88900000D02*
X116800000Y-88900000D01*
X117800000Y-88900000D02*
X117800000Y-87900000D01*
%TO.C,J_Bell1*%
X121090000Y-82360000D02*
X124510000Y-82360000D01*
X124510000Y-82360000D02*
X124510000Y-77890000D01*
X124510000Y-77890000D02*
X121090000Y-77890000D01*
X121090000Y-77890000D02*
X121090000Y-82360000D01*
X124000000Y-80125000D02*
X124000000Y-81850000D01*
X124000000Y-81850000D02*
X123250000Y-81850000D01*
X123250000Y-81850000D02*
X123250000Y-82050000D01*
X123250000Y-82050000D02*
X122450000Y-82050000D01*
X122450000Y-82050000D02*
X122450000Y-81850000D01*
X122450000Y-81850000D02*
X121600000Y-81850000D01*
X121600000Y-81850000D02*
X121600000Y-80125000D01*
X124000000Y-80125000D02*
X124000000Y-78400000D01*
X124000000Y-78400000D02*
X123250000Y-78400000D01*
X123250000Y-78400000D02*
X123250000Y-78200000D01*
X123250000Y-78200000D02*
X122450000Y-78200000D01*
X122450000Y-78200000D02*
X122450000Y-78400000D01*
X122450000Y-78400000D02*
X121600000Y-78400000D01*
X121600000Y-78400000D02*
X121600000Y-80125000D01*
X124800000Y-82650000D02*
X123800000Y-82650000D01*
X124800000Y-82650000D02*
X124800000Y-81650000D01*
%TO.C,D3*%
X125400000Y-79900000D02*
X126600000Y-79900000D01*
X125400000Y-78050000D02*
X125400000Y-79900000D01*
X126600000Y-78050000D02*
X126600000Y-79900000D01*
%TO.C,D2*%
X127150000Y-82650000D02*
X128350000Y-82650000D01*
X127150000Y-80800000D02*
X127150000Y-82650000D01*
X128350000Y-80800000D02*
X128350000Y-82650000D01*
%TO.C,D1*%
X125400000Y-82650000D02*
X126600000Y-82650000D01*
X125400000Y-80800000D02*
X125400000Y-82650000D01*
X126600000Y-80800000D02*
X126600000Y-82650000D01*
%TO.C,C2*%
X130109420Y-84490000D02*
X130390580Y-84490000D01*
X130109420Y-85510000D02*
X130390580Y-85510000D01*
%TO.C,C1*%
X128990000Y-79140580D02*
X128990000Y-78859420D01*
X130010000Y-79140580D02*
X130010000Y-78859420D01*
%TO.C,D4*%
D11*
X127159523Y-77361904D02*
X127159523Y-76561904D01*
X127350000Y-76561904D01*
X127464285Y-76600000D01*
X127540476Y-76676190D01*
X127578571Y-76752380D01*
X127616666Y-76904761D01*
X127616666Y-77019047D01*
X127578571Y-77171428D01*
X127540476Y-77247619D01*
X127464285Y-77323809D01*
X127350000Y-77361904D01*
X127159523Y-77361904D01*
X128302380Y-76828571D02*
X128302380Y-77361904D01*
X128111904Y-76523809D02*
X127921428Y-77095238D01*
X128416666Y-77095238D01*
%TO.C,U1*%
X122890476Y-89061904D02*
X122890476Y-89709523D01*
X122928571Y-89785714D01*
X122966666Y-89823809D01*
X123042857Y-89861904D01*
X123195238Y-89861904D01*
X123271428Y-89823809D01*
X123309523Y-89785714D01*
X123347619Y-89709523D01*
X123347619Y-89061904D01*
X124147619Y-89861904D02*
X123690476Y-89861904D01*
X123919047Y-89861904D02*
X123919047Y-89061904D01*
X123842857Y-89176190D01*
X123766666Y-89252380D01*
X123690476Y-89290476D01*
%TO.C,R3*%
X132611904Y-83383333D02*
X132230952Y-83650000D01*
X132611904Y-83840476D02*
X131811904Y-83840476D01*
X131811904Y-83535714D01*
X131850000Y-83459523D01*
X131888095Y-83421428D01*
X131964285Y-83383333D01*
X132078571Y-83383333D01*
X132154761Y-83421428D01*
X132192857Y-83459523D01*
X132230952Y-83535714D01*
X132230952Y-83840476D01*
X131811904Y-83116666D02*
X131811904Y-82621428D01*
X132116666Y-82888095D01*
X132116666Y-82773809D01*
X132154761Y-82697619D01*
X132192857Y-82659523D01*
X132269047Y-82621428D01*
X132459523Y-82621428D01*
X132535714Y-82659523D01*
X132573809Y-82697619D01*
X132611904Y-82773809D01*
X132611904Y-83002380D01*
X132573809Y-83078571D01*
X132535714Y-83116666D01*
%TO.C,R2*%
X131111904Y-87633333D02*
X130730952Y-87900000D01*
X131111904Y-88090476D02*
X130311904Y-88090476D01*
X130311904Y-87785714D01*
X130350000Y-87709523D01*
X130388095Y-87671428D01*
X130464285Y-87633333D01*
X130578571Y-87633333D01*
X130654761Y-87671428D01*
X130692857Y-87709523D01*
X130730952Y-87785714D01*
X130730952Y-88090476D01*
X130388095Y-87328571D02*
X130350000Y-87290476D01*
X130311904Y-87214285D01*
X130311904Y-87023809D01*
X130350000Y-86947619D01*
X130388095Y-86909523D01*
X130464285Y-86871428D01*
X130540476Y-86871428D01*
X130654761Y-86909523D01*
X131111904Y-87366666D01*
X131111904Y-86871428D01*
%TO.C,R1*%
X132611904Y-81633333D02*
X132230952Y-81900000D01*
X132611904Y-82090476D02*
X131811904Y-82090476D01*
X131811904Y-81785714D01*
X131850000Y-81709523D01*
X131888095Y-81671428D01*
X131964285Y-81633333D01*
X132078571Y-81633333D01*
X132154761Y-81671428D01*
X132192857Y-81709523D01*
X132230952Y-81785714D01*
X132230952Y-82090476D01*
X132611904Y-80871428D02*
X132611904Y-81328571D01*
X132611904Y-81100000D02*
X131811904Y-81100000D01*
X131926190Y-81176190D01*
X132002380Y-81252380D01*
X132040476Y-81328571D01*
%TO.C,J_ESP1*%
X113061904Y-88094285D02*
X113633333Y-88094285D01*
X113747619Y-88132380D01*
X113823809Y-88208571D01*
X113861904Y-88322857D01*
X113861904Y-88399047D01*
X113938095Y-87903809D02*
X113938095Y-87294285D01*
X113442857Y-87103809D02*
X113442857Y-86837142D01*
X113861904Y-86722857D02*
X113861904Y-87103809D01*
X113061904Y-87103809D01*
X113061904Y-86722857D01*
X113823809Y-86418095D02*
X113861904Y-86303809D01*
X113861904Y-86113333D01*
X113823809Y-86037142D01*
X113785714Y-85999047D01*
X113709523Y-85960952D01*
X113633333Y-85960952D01*
X113557142Y-85999047D01*
X113519047Y-86037142D01*
X113480952Y-86113333D01*
X113442857Y-86265714D01*
X113404761Y-86341904D01*
X113366666Y-86380000D01*
X113290476Y-86418095D01*
X113214285Y-86418095D01*
X113138095Y-86380000D01*
X113100000Y-86341904D01*
X113061904Y-86265714D01*
X113061904Y-86075238D01*
X113100000Y-85960952D01*
X113861904Y-85618095D02*
X113061904Y-85618095D01*
X113061904Y-85313333D01*
X113100000Y-85237142D01*
X113138095Y-85199047D01*
X113214285Y-85160952D01*
X113328571Y-85160952D01*
X113404761Y-85199047D01*
X113442857Y-85237142D01*
X113480952Y-85313333D01*
X113480952Y-85618095D01*
X113861904Y-84399047D02*
X113861904Y-84856190D01*
X113861904Y-84627619D02*
X113061904Y-84627619D01*
X113176190Y-84703809D01*
X113252380Y-84780000D01*
X113290476Y-84856190D01*
%TO.C,J_Bell1*%
X120061904Y-81863333D02*
X120633333Y-81863333D01*
X120747619Y-81901428D01*
X120823809Y-81977619D01*
X120861904Y-82091904D01*
X120861904Y-82168095D01*
X120938095Y-81672857D02*
X120938095Y-81063333D01*
X120442857Y-80606190D02*
X120480952Y-80491904D01*
X120519047Y-80453809D01*
X120595238Y-80415714D01*
X120709523Y-80415714D01*
X120785714Y-80453809D01*
X120823809Y-80491904D01*
X120861904Y-80568095D01*
X120861904Y-80872857D01*
X120061904Y-80872857D01*
X120061904Y-80606190D01*
X120100000Y-80530000D01*
X120138095Y-80491904D01*
X120214285Y-80453809D01*
X120290476Y-80453809D01*
X120366666Y-80491904D01*
X120404761Y-80530000D01*
X120442857Y-80606190D01*
X120442857Y-80872857D01*
X120823809Y-79768095D02*
X120861904Y-79844285D01*
X120861904Y-79996666D01*
X120823809Y-80072857D01*
X120747619Y-80110952D01*
X120442857Y-80110952D01*
X120366666Y-80072857D01*
X120328571Y-79996666D01*
X120328571Y-79844285D01*
X120366666Y-79768095D01*
X120442857Y-79730000D01*
X120519047Y-79730000D01*
X120595238Y-80110952D01*
X120861904Y-79272857D02*
X120823809Y-79349047D01*
X120747619Y-79387142D01*
X120061904Y-79387142D01*
X120861904Y-78853809D02*
X120823809Y-78930000D01*
X120747619Y-78968095D01*
X120061904Y-78968095D01*
X120861904Y-78130000D02*
X120861904Y-78587142D01*
X120861904Y-78358571D02*
X120061904Y-78358571D01*
X120176190Y-78434761D01*
X120252380Y-78510952D01*
X120290476Y-78587142D01*
%TO.C,D3*%
X125409523Y-77361904D02*
X125409523Y-76561904D01*
X125600000Y-76561904D01*
X125714285Y-76600000D01*
X125790476Y-76676190D01*
X125828571Y-76752380D01*
X125866666Y-76904761D01*
X125866666Y-77019047D01*
X125828571Y-77171428D01*
X125790476Y-77247619D01*
X125714285Y-77323809D01*
X125600000Y-77361904D01*
X125409523Y-77361904D01*
X126133333Y-76561904D02*
X126628571Y-76561904D01*
X126361904Y-76866666D01*
X126476190Y-76866666D01*
X126552380Y-76904761D01*
X126590476Y-76942857D01*
X126628571Y-77019047D01*
X126628571Y-77209523D01*
X126590476Y-77285714D01*
X126552380Y-77323809D01*
X126476190Y-77361904D01*
X126247619Y-77361904D01*
X126171428Y-77323809D01*
X126133333Y-77285714D01*
%TO.C,D2*%
X127159523Y-83461904D02*
X127159523Y-82661904D01*
X127350000Y-82661904D01*
X127464285Y-82700000D01*
X127540476Y-82776190D01*
X127578571Y-82852380D01*
X127616666Y-83004761D01*
X127616666Y-83119047D01*
X127578571Y-83271428D01*
X127540476Y-83347619D01*
X127464285Y-83423809D01*
X127350000Y-83461904D01*
X127159523Y-83461904D01*
X127921428Y-82738095D02*
X127959523Y-82700000D01*
X128035714Y-82661904D01*
X128226190Y-82661904D01*
X128302380Y-82700000D01*
X128340476Y-82738095D01*
X128378571Y-82814285D01*
X128378571Y-82890476D01*
X128340476Y-83004761D01*
X127883333Y-83461904D01*
X128378571Y-83461904D01*
%TO.C,D1*%
X125409523Y-83461904D02*
X125409523Y-82661904D01*
X125600000Y-82661904D01*
X125714285Y-82700000D01*
X125790476Y-82776190D01*
X125828571Y-82852380D01*
X125866666Y-83004761D01*
X125866666Y-83119047D01*
X125828571Y-83271428D01*
X125790476Y-83347619D01*
X125714285Y-83423809D01*
X125600000Y-83461904D01*
X125409523Y-83461904D01*
X126628571Y-83461904D02*
X126171428Y-83461904D01*
X126400000Y-83461904D02*
X126400000Y-82661904D01*
X126323809Y-82776190D01*
X126247619Y-82852380D01*
X126171428Y-82890476D01*
%TO.C,C2*%
X132535714Y-85133333D02*
X132573809Y-85171428D01*
X132611904Y-85285714D01*
X132611904Y-85361904D01*
X132573809Y-85476190D01*
X132497619Y-85552380D01*
X132421428Y-85590476D01*
X132269047Y-85628571D01*
X132154761Y-85628571D01*
X132002380Y-85590476D01*
X131926190Y-85552380D01*
X131850000Y-85476190D01*
X131811904Y-85361904D01*
X131811904Y-85285714D01*
X131850000Y-85171428D01*
X131888095Y-85133333D01*
X131888095Y-84828571D02*
X131850000Y-84790476D01*
X131811904Y-84714285D01*
X131811904Y-84523809D01*
X131850000Y-84447619D01*
X131888095Y-84409523D01*
X131964285Y-84371428D01*
X132040476Y-84371428D01*
X132154761Y-84409523D01*
X132611904Y-84866666D01*
X132611904Y-84371428D01*
%TO.C,C1*%
X131035714Y-79133333D02*
X131073809Y-79171428D01*
X131111904Y-79285714D01*
X131111904Y-79361904D01*
X131073809Y-79476190D01*
X130997619Y-79552380D01*
X130921428Y-79590476D01*
X130769047Y-79628571D01*
X130654761Y-79628571D01*
X130502380Y-79590476D01*
X130426190Y-79552380D01*
X130350000Y-79476190D01*
X130311904Y-79361904D01*
X130311904Y-79285714D01*
X130350000Y-79171428D01*
X130388095Y-79133333D01*
X131111904Y-78371428D02*
X131111904Y-78828571D01*
X131111904Y-78600000D02*
X130311904Y-78600000D01*
X130426190Y-78676190D01*
X130502380Y-78752380D01*
X130540476Y-78828571D01*
%TD*%
M02*
