%TF.GenerationSoftware,KiCad,Pcbnew,5.1.12-84ad8e8a86~92~ubuntu20.04.1*%
%TF.CreationDate,2021-11-26T18:46:47+01:00*%
%TF.ProjectId,doorbell-adapter,646f6f72-6265-46c6-9c2d-616461707465,rev?*%
%TF.SameCoordinates,Original*%
%TF.FileFunction,Legend,Bot*%
%TF.FilePolarity,Positive*%
%FSLAX46Y46*%
G04 Gerber Fmt 4.6, Leading zero omitted, Abs format (unit mm)*
G04 Created by KiCad (PCBNEW 5.1.12-84ad8e8a86~92~ubuntu20.04.1) date 2021-11-26 18:46:47*
%MOMM*%
%LPD*%
G01*
G04 APERTURE LIST*
%ADD10C,0.100000*%
G04 APERTURE END LIST*
D10*
X129533333Y-81061904D02*
X129533333Y-80261904D01*
X129533333Y-81023809D02*
X129609523Y-81061904D01*
X129761904Y-81061904D01*
X129838095Y-81023809D01*
X129876190Y-80985714D01*
X129914285Y-80909523D01*
X129914285Y-80680952D01*
X129876190Y-80604761D01*
X129838095Y-80566666D01*
X129761904Y-80528571D01*
X129609523Y-80528571D01*
X129533333Y-80566666D01*
X129038095Y-81061904D02*
X129114285Y-81023809D01*
X129152380Y-80985714D01*
X129190476Y-80909523D01*
X129190476Y-80680952D01*
X129152380Y-80604761D01*
X129114285Y-80566666D01*
X129038095Y-80528571D01*
X128923809Y-80528571D01*
X128847619Y-80566666D01*
X128809523Y-80604761D01*
X128771428Y-80680952D01*
X128771428Y-80909523D01*
X128809523Y-80985714D01*
X128847619Y-81023809D01*
X128923809Y-81061904D01*
X129038095Y-81061904D01*
X128314285Y-81061904D02*
X128390476Y-81023809D01*
X128428571Y-80985714D01*
X128466666Y-80909523D01*
X128466666Y-80680952D01*
X128428571Y-80604761D01*
X128390476Y-80566666D01*
X128314285Y-80528571D01*
X128200000Y-80528571D01*
X128123809Y-80566666D01*
X128085714Y-80604761D01*
X128047619Y-80680952D01*
X128047619Y-80909523D01*
X128085714Y-80985714D01*
X128123809Y-81023809D01*
X128200000Y-81061904D01*
X128314285Y-81061904D01*
X127704761Y-81061904D02*
X127704761Y-80528571D01*
X127704761Y-80680952D02*
X127666666Y-80604761D01*
X127628571Y-80566666D01*
X127552380Y-80528571D01*
X127476190Y-80528571D01*
X126600000Y-81061904D02*
X126600000Y-80261904D01*
X126600000Y-80566666D02*
X126523809Y-80528571D01*
X126371428Y-80528571D01*
X126295238Y-80566666D01*
X126257142Y-80604761D01*
X126219047Y-80680952D01*
X126219047Y-80909523D01*
X126257142Y-80985714D01*
X126295238Y-81023809D01*
X126371428Y-81061904D01*
X126523809Y-81061904D01*
X126600000Y-81023809D01*
X125571428Y-81023809D02*
X125647619Y-81061904D01*
X125800000Y-81061904D01*
X125876190Y-81023809D01*
X125914285Y-80947619D01*
X125914285Y-80642857D01*
X125876190Y-80566666D01*
X125800000Y-80528571D01*
X125647619Y-80528571D01*
X125571428Y-80566666D01*
X125533333Y-80642857D01*
X125533333Y-80719047D01*
X125914285Y-80795238D01*
X125076190Y-81061904D02*
X125152380Y-81023809D01*
X125190476Y-80947619D01*
X125190476Y-80261904D01*
X124657142Y-81061904D02*
X124733333Y-81023809D01*
X124771428Y-80947619D01*
X124771428Y-80261904D01*
X130295238Y-82361904D02*
X130295238Y-81942857D01*
X130333333Y-81866666D01*
X130409523Y-81828571D01*
X130561904Y-81828571D01*
X130638095Y-81866666D01*
X130295238Y-82323809D02*
X130371428Y-82361904D01*
X130561904Y-82361904D01*
X130638095Y-82323809D01*
X130676190Y-82247619D01*
X130676190Y-82171428D01*
X130638095Y-82095238D01*
X130561904Y-82057142D01*
X130371428Y-82057142D01*
X130295238Y-82019047D01*
X129571428Y-82361904D02*
X129571428Y-81561904D01*
X129571428Y-82323809D02*
X129647619Y-82361904D01*
X129800000Y-82361904D01*
X129876190Y-82323809D01*
X129914285Y-82285714D01*
X129952380Y-82209523D01*
X129952380Y-81980952D01*
X129914285Y-81904761D01*
X129876190Y-81866666D01*
X129800000Y-81828571D01*
X129647619Y-81828571D01*
X129571428Y-81866666D01*
X128847619Y-82361904D02*
X128847619Y-81942857D01*
X128885714Y-81866666D01*
X128961904Y-81828571D01*
X129114285Y-81828571D01*
X129190476Y-81866666D01*
X128847619Y-82323809D02*
X128923809Y-82361904D01*
X129114285Y-82361904D01*
X129190476Y-82323809D01*
X129228571Y-82247619D01*
X129228571Y-82171428D01*
X129190476Y-82095238D01*
X129114285Y-82057142D01*
X128923809Y-82057142D01*
X128847619Y-82019047D01*
X128466666Y-81828571D02*
X128466666Y-82628571D01*
X128466666Y-81866666D02*
X128390476Y-81828571D01*
X128238095Y-81828571D01*
X128161904Y-81866666D01*
X128123809Y-81904761D01*
X128085714Y-81980952D01*
X128085714Y-82209523D01*
X128123809Y-82285714D01*
X128161904Y-82323809D01*
X128238095Y-82361904D01*
X128390476Y-82361904D01*
X128466666Y-82323809D01*
X127857142Y-81828571D02*
X127552380Y-81828571D01*
X127742857Y-81561904D02*
X127742857Y-82247619D01*
X127704761Y-82323809D01*
X127628571Y-82361904D01*
X127552380Y-82361904D01*
X126980952Y-82323809D02*
X127057142Y-82361904D01*
X127209523Y-82361904D01*
X127285714Y-82323809D01*
X127323809Y-82247619D01*
X127323809Y-81942857D01*
X127285714Y-81866666D01*
X127209523Y-81828571D01*
X127057142Y-81828571D01*
X126980952Y-81866666D01*
X126942857Y-81942857D01*
X126942857Y-82019047D01*
X127323809Y-82095238D01*
X126600000Y-82361904D02*
X126600000Y-81828571D01*
X126600000Y-81980952D02*
X126561904Y-81904761D01*
X126523809Y-81866666D01*
X126447619Y-81828571D01*
X126371428Y-81828571D01*
X125571428Y-81828571D02*
X125380952Y-82361904D01*
X125190476Y-81828571D01*
X124466666Y-82361904D02*
X124923809Y-82361904D01*
X124695238Y-82361904D02*
X124695238Y-81561904D01*
X124771428Y-81676190D01*
X124847619Y-81752380D01*
X124923809Y-81790476D01*
X124123809Y-82285714D02*
X124085714Y-82323809D01*
X124123809Y-82361904D01*
X124161904Y-82323809D01*
X124123809Y-82285714D01*
X124123809Y-82361904D01*
X123590476Y-81561904D02*
X123514285Y-81561904D01*
X123438095Y-81600000D01*
X123400000Y-81638095D01*
X123361904Y-81714285D01*
X123323809Y-81866666D01*
X123323809Y-82057142D01*
X123361904Y-82209523D01*
X123400000Y-82285714D01*
X123438095Y-82323809D01*
X123514285Y-82361904D01*
X123590476Y-82361904D01*
X123666666Y-82323809D01*
X123704761Y-82285714D01*
X123742857Y-82209523D01*
X123780952Y-82057142D01*
X123780952Y-81866666D01*
X123742857Y-81714285D01*
X123704761Y-81638095D01*
X123666666Y-81600000D01*
X123590476Y-81561904D01*
X132219047Y-83661904D02*
X132219047Y-82861904D01*
X131952380Y-83433333D01*
X131685714Y-82861904D01*
X131685714Y-83661904D01*
X131304761Y-83585714D02*
X131266666Y-83623809D01*
X131304761Y-83661904D01*
X131342857Y-83623809D01*
X131304761Y-83585714D01*
X131304761Y-83661904D01*
X129895238Y-82900000D02*
X129971428Y-82861904D01*
X130085714Y-82861904D01*
X130200000Y-82900000D01*
X130276190Y-82976190D01*
X130314285Y-83052380D01*
X130352380Y-83204761D01*
X130352380Y-83319047D01*
X130314285Y-83471428D01*
X130276190Y-83547619D01*
X130200000Y-83623809D01*
X130085714Y-83661904D01*
X130009523Y-83661904D01*
X129895238Y-83623809D01*
X129857142Y-83585714D01*
X129857142Y-83319047D01*
X130009523Y-83319047D01*
X129514285Y-83661904D02*
X129514285Y-83128571D01*
X129514285Y-83280952D02*
X129476190Y-83204761D01*
X129438095Y-83166666D01*
X129361904Y-83128571D01*
X129285714Y-83128571D01*
X128676190Y-83661904D02*
X128676190Y-83242857D01*
X128714285Y-83166666D01*
X128790476Y-83128571D01*
X128942857Y-83128571D01*
X129019047Y-83166666D01*
X128676190Y-83623809D02*
X128752380Y-83661904D01*
X128942857Y-83661904D01*
X129019047Y-83623809D01*
X129057142Y-83547619D01*
X129057142Y-83471428D01*
X129019047Y-83395238D01*
X128942857Y-83357142D01*
X128752380Y-83357142D01*
X128676190Y-83319047D01*
X127952380Y-83128571D02*
X127952380Y-83661904D01*
X128295238Y-83128571D02*
X128295238Y-83547619D01*
X128257142Y-83623809D01*
X128180952Y-83661904D01*
X128066666Y-83661904D01*
X127990476Y-83623809D01*
X127952380Y-83585714D01*
X127000000Y-82938095D02*
X126961904Y-82900000D01*
X126885714Y-82861904D01*
X126695238Y-82861904D01*
X126619047Y-82900000D01*
X126580952Y-82938095D01*
X126542857Y-83014285D01*
X126542857Y-83090476D01*
X126580952Y-83204761D01*
X127038095Y-83661904D01*
X126542857Y-83661904D01*
X126047619Y-82861904D02*
X125971428Y-82861904D01*
X125895238Y-82900000D01*
X125857142Y-82938095D01*
X125819047Y-83014285D01*
X125780952Y-83166666D01*
X125780952Y-83357142D01*
X125819047Y-83509523D01*
X125857142Y-83585714D01*
X125895238Y-83623809D01*
X125971428Y-83661904D01*
X126047619Y-83661904D01*
X126123809Y-83623809D01*
X126161904Y-83585714D01*
X126200000Y-83509523D01*
X126238095Y-83357142D01*
X126238095Y-83166666D01*
X126200000Y-83014285D01*
X126161904Y-82938095D01*
X126123809Y-82900000D01*
X126047619Y-82861904D01*
X125476190Y-82938095D02*
X125438095Y-82900000D01*
X125361904Y-82861904D01*
X125171428Y-82861904D01*
X125095238Y-82900000D01*
X125057142Y-82938095D01*
X125019047Y-83014285D01*
X125019047Y-83090476D01*
X125057142Y-83204761D01*
X125514285Y-83661904D01*
X125019047Y-83661904D01*
X124257142Y-83661904D02*
X124714285Y-83661904D01*
X124485714Y-83661904D02*
X124485714Y-82861904D01*
X124561904Y-82976190D01*
X124638095Y-83052380D01*
X124714285Y-83090476D01*
X123914285Y-83357142D02*
X123304761Y-83357142D01*
X122504761Y-83661904D02*
X122961904Y-83661904D01*
X122733333Y-83661904D02*
X122733333Y-82861904D01*
X122809523Y-82976190D01*
X122885714Y-83052380D01*
X122961904Y-83090476D01*
X122200000Y-82938095D02*
X122161904Y-82900000D01*
X122085714Y-82861904D01*
X121895238Y-82861904D01*
X121819047Y-82900000D01*
X121780952Y-82938095D01*
X121742857Y-83014285D01*
X121742857Y-83090476D01*
X121780952Y-83204761D01*
X122238095Y-83661904D01*
X121742857Y-83661904D01*
M02*
